<mxfile host="65bd71144e">
    <diagram id="oRZaLXy1vsITSXBMTITj" name="Page-1">
        <mxGraphModel dx="2441" dy="916" grid="1" gridSize="10" guides="1" tooltips="1" connect="1" arrows="1" fold="1" page="1" pageScale="1" pageWidth="850" pageHeight="1100" math="0" shadow="0">
            <root>
                <mxCell id="0"/>
                <mxCell id="1" parent="0"/>
                <mxCell id="19" value="&lt;p style=&quot;margin:0px;margin-top:4px;text-align:center;&quot;&gt;&lt;b&gt;Loanable&lt;/b&gt;&lt;/p&gt;" style="verticalAlign=top;align=left;overflow=fill;fontSize=12;fontFamily=Helvetica;html=1;" parent="1" vertex="1">
                    <mxGeometry x="405" y="15" width="500" height="460" as="geometry"/>
                </mxCell>
                <mxCell id="11" value="- name: String" style="text;strokeColor=none;fillColor=none;align=left;verticalAlign=top;spacingLeft=4;spacingRight=4;overflow=hidden;rotatable=0;points=[[0,0.5],[1,0.5]];portConstraint=eastwest;" parent="1" vertex="1">
                    <mxGeometry x="415" y="57" width="160" height="24" as="geometry"/>
                </mxCell>
                <mxCell id="15" value="- state: LoanState" style="text;strokeColor=none;fillColor=none;align=left;verticalAlign=top;spacingLeft=4;spacingRight=4;overflow=hidden;rotatable=0;points=[[0,0.5],[1,0.5]];portConstraint=eastwest;" parent="1" vertex="1">
                    <mxGeometry x="415" y="81" width="160" height="24" as="geometry"/>
                </mxCell>
                <mxCell id="16" value="- dueDate: LocalDate" style="text;strokeColor=none;fillColor=none;align=left;verticalAlign=top;spacingLeft=4;spacingRight=4;overflow=hidden;rotatable=0;points=[[0,0.5],[1,0.5]];portConstraint=eastwest;" parent="1" vertex="1">
                    <mxGeometry x="415" y="107" width="160" height="24" as="geometry"/>
                </mxCell>
                <mxCell id="17" value="- name: String" style="text;strokeColor=none;fillColor=none;align=left;verticalAlign=top;spacingLeft=4;spacingRight=4;overflow=hidden;rotatable=0;points=[[0,0.5],[1,0.5]];portConstraint=eastwest;" parent="1" vertex="1">
                    <mxGeometry x="415" y="131" width="160" height="24" as="geometry"/>
                </mxCell>
                <mxCell id="20" value="&lt;&lt;enumeration&gt;&gt;&#10;LoanState" style="swimlane;fontStyle=4;childLayout=stackLayout;horizontal=1;startSize=40;fillColor=none;horizontalStack=0;resizeParent=1;resizeParentMax=0;resizeLast=0;collapsible=1;marginBottom=0;" parent="1" vertex="1">
                    <mxGeometry x="695" y="71" width="140" height="144" as="geometry"/>
                </mxCell>
                <mxCell id="21" value=" ON_LOAN" style="text;strokeColor=none;fillColor=none;align=left;verticalAlign=top;spacingLeft=4;spacingRight=4;overflow=hidden;rotatable=0;points=[[0,0.5],[1,0.5]];portConstraint=eastwest;" parent="20" vertex="1">
                    <mxGeometry y="40" width="140" height="26" as="geometry"/>
                </mxCell>
                <mxCell id="22" value="IN_ARCHIVE" style="text;strokeColor=none;fillColor=none;align=left;verticalAlign=top;spacingLeft=4;spacingRight=4;overflow=hidden;rotatable=0;points=[[0,0.5],[1,0.5]];portConstraint=eastwest;" parent="20" vertex="1">
                    <mxGeometry y="66" width="140" height="26" as="geometry"/>
                </mxCell>
                <mxCell id="25" value="LOST" style="text;strokeColor=none;fillColor=none;align=left;verticalAlign=top;spacingLeft=4;spacingRight=4;overflow=hidden;rotatable=0;points=[[0,0.5],[1,0.5]];portConstraint=eastwest;" parent="20" vertex="1">
                    <mxGeometry y="92" width="140" height="26" as="geometry"/>
                </mxCell>
                <mxCell id="24" value="RUINED" style="text;strokeColor=none;fillColor=none;align=left;verticalAlign=top;spacingLeft=4;spacingRight=4;overflow=hidden;rotatable=0;points=[[0,0.5],[1,0.5]];portConstraint=eastwest;" parent="20" vertex="1">
                    <mxGeometry y="118" width="140" height="26" as="geometry"/>
                </mxCell>
                <mxCell id="27" value="- borrower: User" style="text;strokeColor=none;fillColor=none;align=left;verticalAlign=top;spacingLeft=4;spacingRight=4;overflow=hidden;rotatable=0;points=[[0,0.5],[1,0.5]];portConstraint=eastwest;" parent="1" vertex="1">
                    <mxGeometry x="415" y="155" width="160" height="24" as="geometry"/>
                </mxCell>
                <mxCell id="28" value="" style="line;strokeWidth=1;fillColor=none;align=left;verticalAlign=middle;spacingTop=-1;spacingLeft=3;spacingRight=3;rotatable=0;labelPosition=right;points=[];portConstraint=eastwest;strokeColor=inherit;" parent="1" vertex="1">
                    <mxGeometry x="405" y="215" width="500" height="8" as="geometry"/>
                </mxCell>
                <mxCell id="29" value="+ Loanable(name: String, state: LoanState, borrower: User, dueDate: LocalDate, id: String)     " style="text;strokeColor=none;fillColor=none;align=left;verticalAlign=top;spacingLeft=4;spacingRight=4;overflow=hidden;rotatable=0;points=[[0,0.5],[1,0.5]];portConstraint=eastwest;" parent="1" vertex="1">
                    <mxGeometry x="405" y="223" width="500" height="24" as="geometry"/>
                </mxCell>
                <mxCell id="30" value="+ Loanable(name: String, id: String)     " style="text;strokeColor=none;fillColor=none;align=left;verticalAlign=top;spacingLeft=4;spacingRight=4;overflow=hidden;rotatable=0;points=[[0,0.5],[1,0.5]];portConstraint=eastwest;" parent="1" vertex="1">
                    <mxGeometry x="405" y="247" width="500" height="24" as="geometry"/>
                </mxCell>
                <mxCell id="31" value="- createID(): String" style="text;strokeColor=none;fillColor=none;align=left;verticalAlign=top;spacingLeft=4;spacingRight=4;overflow=hidden;rotatable=0;points=[[0,0.5],[1,0.5]];portConstraint=eastwest;" parent="1" vertex="1">
                    <mxGeometry x="405" y="271" width="500" height="24" as="geometry"/>
                </mxCell>
                <mxCell id="33" value="+ setOnLoanTo(applicant: Admin, borrower: User)" style="text;strokeColor=none;fillColor=none;align=left;verticalAlign=top;spacingLeft=4;spacingRight=4;overflow=hidden;rotatable=0;points=[[0,0.5],[1,0.5]];portConstraint=eastwest;" parent="1" vertex="1">
                    <mxGeometry x="405" y="295" width="500" height="24" as="geometry"/>
                </mxCell>
                <mxCell id="34" value="+ setOnArchive(applicant: Admin)" style="text;strokeColor=none;fillColor=none;align=left;verticalAlign=top;spacingLeft=4;spacingRight=4;overflow=hidden;rotatable=0;points=[[0,0.5],[1,0.5]];portConstraint=eastwest;" parent="1" vertex="1">
                    <mxGeometry x="405" y="319" width="500" height="24" as="geometry"/>
                </mxCell>
                <mxCell id="35" value="+ setLost(applicant: Admin)" style="text;strokeColor=none;fillColor=none;align=left;verticalAlign=top;spacingLeft=4;spacingRight=4;overflow=hidden;rotatable=0;points=[[0,0.5],[1,0.5]];portConstraint=eastwest;" parent="1" vertex="1">
                    <mxGeometry x="405" y="343" width="500" height="24" as="geometry"/>
                </mxCell>
                <mxCell id="36" value="+ setRuined(applicant: Admin)" style="text;strokeColor=none;fillColor=none;align=left;verticalAlign=top;spacingLeft=4;spacingRight=4;overflow=hidden;rotatable=0;points=[[0,0.5],[1,0.5]];portConstraint=eastwest;" parent="1" vertex="1">
                    <mxGeometry x="405" y="367" width="500" height="24" as="geometry"/>
                </mxCell>
                <mxCell id="37" value="+ setDueDate(applicant: Admin, dueDate: LocalDate)" style="text;strokeColor=none;fillColor=none;align=left;verticalAlign=top;spacingLeft=4;spacingRight=4;overflow=hidden;rotatable=0;points=[[0,0.5],[1,0.5]];portConstraint=eastwest;" parent="1" vertex="1">
                    <mxGeometry x="405" y="391" width="500" height="24" as="geometry"/>
                </mxCell>
                <mxCell id="38" value="+ setName(applicant: Admin, name: String)" style="text;strokeColor=none;fillColor=none;align=left;verticalAlign=top;spacingLeft=4;spacingRight=4;overflow=hidden;rotatable=0;points=[[0,0.5],[1,0.5]];portConstraint=eastwest;" parent="1" vertex="1">
                    <mxGeometry x="405" y="415" width="500" height="24" as="geometry"/>
                </mxCell>
                <mxCell id="42" value="+ getters" style="text;strokeColor=none;fillColor=none;align=left;verticalAlign=top;spacingLeft=4;spacingRight=4;overflow=hidden;rotatable=0;points=[[0,0.5],[1,0.5]];portConstraint=eastwest;" parent="1" vertex="1">
                    <mxGeometry x="405" y="439" width="500" height="24" as="geometry"/>
                </mxCell>
                <mxCell id="43" value="&lt;p style=&quot;margin:0px;margin-top:4px;text-align:center;&quot;&gt;&lt;b&gt;Book&lt;/b&gt;&lt;/p&gt;" style="verticalAlign=top;align=left;overflow=fill;fontSize=12;fontFamily=Helvetica;html=1;" parent="1" vertex="1">
                    <mxGeometry x="400" y="585" width="510" height="500" as="geometry"/>
                </mxCell>
                <mxCell id="44" value="- name: String" style="text;strokeColor=none;fillColor=none;align=left;verticalAlign=top;spacingLeft=4;spacingRight=4;overflow=hidden;rotatable=0;points=[[0,0.5],[1,0.5]];portConstraint=eastwest;" parent="1" vertex="1">
                    <mxGeometry x="410" y="627" width="160" height="24" as="geometry"/>
                </mxCell>
                <mxCell id="45" value="- author: String" style="text;strokeColor=none;fillColor=none;align=left;verticalAlign=top;spacingLeft=4;spacingRight=4;overflow=hidden;rotatable=0;points=[[0,0.5],[1,0.5]];portConstraint=eastwest;" parent="1" vertex="1">
                    <mxGeometry x="410" y="651" width="160" height="24" as="geometry"/>
                </mxCell>
                <mxCell id="46" value="- genre: Genre" style="text;strokeColor=none;fillColor=none;align=left;verticalAlign=top;spacingLeft=4;spacingRight=4;overflow=hidden;rotatable=0;points=[[0,0.5],[1,0.5]];portConstraint=eastwest;" parent="1" vertex="1">
                    <mxGeometry x="410" y="677" width="160" height="24" as="geometry"/>
                </mxCell>
                <mxCell id="47" value="- releaseYear: Year" style="text;strokeColor=none;fillColor=none;align=left;verticalAlign=top;spacingLeft=4;spacingRight=4;overflow=hidden;rotatable=0;points=[[0,0.5],[1,0.5]];portConstraint=eastwest;" parent="1" vertex="1">
                    <mxGeometry x="410" y="701" width="160" height="24" as="geometry"/>
                </mxCell>
                <mxCell id="49" value="&lt;&lt;enumeration&gt;&gt;&#10;Genre" style="swimlane;fontStyle=4;childLayout=stackLayout;horizontal=1;startSize=40;fillColor=none;horizontalStack=0;resizeParent=1;resizeParentMax=0;resizeLast=0;collapsible=1;marginBottom=0;" parent="1" vertex="1">
                    <mxGeometry x="730" y="615" width="140" height="220" as="geometry"/>
                </mxCell>
                <mxCell id="50" value="ACTION&#10;&#9;&#9;FANTASY&#10;&#9;&#9;ADVENTURE&#10;&#9;&#9;ROMANCE&#10;&#9;&#9;COMEDY&#10;&#9;&#9;SCIFI&#10;&#9;&#9;MYSTERY&#10;&#9;&#9;THRILLER&#10;&#9;&#9;HISTORICAL&#10;&#9;&#9;COMIC&#10;&#9;&#9;MANGA&#10;&#9;&#9;CHILDREN" style="text;strokeColor=none;fillColor=none;align=left;verticalAlign=top;spacingLeft=4;spacingRight=4;overflow=hidden;rotatable=0;points=[[0,0.5],[1,0.5]];portConstraint=eastwest;" parent="49" vertex="1">
                    <mxGeometry y="40" width="140" height="180" as="geometry"/>
                </mxCell>
                <mxCell id="54" value="- numPages: int" style="text;strokeColor=none;fillColor=none;align=left;verticalAlign=top;spacingLeft=4;spacingRight=4;overflow=hidden;rotatable=0;points=[[0,0.5],[1,0.5]];portConstraint=eastwest;" parent="1" vertex="1">
                    <mxGeometry x="410" y="725" width="160" height="24" as="geometry"/>
                </mxCell>
                <mxCell id="55" value="" style="line;strokeWidth=1;fillColor=none;align=left;verticalAlign=middle;spacingTop=-1;spacingLeft=3;spacingRight=3;rotatable=0;labelPosition=right;points=[];portConstraint=eastwest;strokeColor=inherit;" parent="1" vertex="1">
                    <mxGeometry x="400" y="835" width="510" height="8" as="geometry"/>
                </mxCell>
                <mxCell id="56" value="+ Book(title: String ,author: String, genre: Genre,releaseYear: Year, numPages: int, id: String)" style="text;strokeColor=none;fillColor=none;align=left;verticalAlign=top;spacingLeft=4;spacingRight=4;overflow=hidden;rotatable=0;points=[[0,0.5],[1,0.5]];portConstraint=eastwest;" parent="1" vertex="1">
                    <mxGeometry x="400" y="843" width="510" height="24" as="geometry"/>
                </mxCell>
                <mxCell id="57" value="+ Book(title: String ,author: String, genre: Genre, releaseYear: Year, numPages: int, &#10;             state: LoanState, id: String, borrower: User,dueDate: LocalDate)" style="text;strokeColor=none;fillColor=none;align=left;verticalAlign=top;spacingLeft=4;spacingRight=4;overflow=hidden;rotatable=0;points=[[0,0.5],[1,0.5]];portConstraint=eastwest;" parent="1" vertex="1">
                    <mxGeometry x="400" y="867" width="510" height="48" as="geometry"/>
                </mxCell>
                <mxCell id="58" value="+ equals(obj: Object): boolean" style="text;strokeColor=none;fillColor=none;align=left;verticalAlign=top;spacingLeft=4;spacingRight=4;overflow=hidden;rotatable=0;points=[[0,0.5],[1,0.5]];portConstraint=eastwest;" parent="1" vertex="1">
                    <mxGeometry x="400" y="905" width="500" height="24" as="geometry"/>
                </mxCell>
                <mxCell id="59" value="+ setTitle(applicant: Admin, title: String)" style="text;strokeColor=none;fillColor=none;align=left;verticalAlign=top;spacingLeft=4;spacingRight=4;overflow=hidden;rotatable=0;points=[[0,0.5],[1,0.5]];portConstraint=eastwest;" parent="1" vertex="1">
                    <mxGeometry x="400" y="929" width="500" height="24" as="geometry"/>
                </mxCell>
                <mxCell id="63" value="+ setNumPages(applicant: Admin, numPages: int)" style="text;strokeColor=none;fillColor=none;align=left;verticalAlign=top;spacingLeft=4;spacingRight=4;overflow=hidden;rotatable=0;points=[[0,0.5],[1,0.5]];portConstraint=eastwest;" parent="1" vertex="1">
                    <mxGeometry x="400" y="1025" width="500" height="24" as="geometry"/>
                </mxCell>
                <mxCell id="65" value="+ getters" style="text;strokeColor=none;fillColor=none;align=left;verticalAlign=top;spacingLeft=4;spacingRight=4;overflow=hidden;rotatable=0;points=[[0,0.5],[1,0.5]];portConstraint=eastwest;" parent="1" vertex="1">
                    <mxGeometry x="400" y="1049" width="500" height="24" as="geometry"/>
                </mxCell>
                <mxCell id="66" value="+ setAuthor(applicant: Admin, author: String)" style="text;strokeColor=none;fillColor=none;align=left;verticalAlign=top;spacingLeft=4;spacingRight=4;overflow=hidden;rotatable=0;points=[[0,0.5],[1,0.5]];portConstraint=eastwest;" vertex="1" parent="1">
                    <mxGeometry x="400" y="953" width="500" height="24" as="geometry"/>
                </mxCell>
                <mxCell id="67" value="+ setGenre(applicant: Admin, genre: Genre)" style="text;strokeColor=none;fillColor=none;align=left;verticalAlign=top;spacingLeft=4;spacingRight=4;overflow=hidden;rotatable=0;points=[[0,0.5],[1,0.5]];portConstraint=eastwest;" vertex="1" parent="1">
                    <mxGeometry x="400" y="977" width="500" height="24" as="geometry"/>
                </mxCell>
                <mxCell id="68" value="+ setReleaseYear(applicant: Admin, releaseYear: Year)" style="text;strokeColor=none;fillColor=none;align=left;verticalAlign=top;spacingLeft=4;spacingRight=4;overflow=hidden;rotatable=0;points=[[0,0.5],[1,0.5]];portConstraint=eastwest;" vertex="1" parent="1">
                    <mxGeometry x="400" y="1001" width="500" height="24" as="geometry"/>
                </mxCell>
                <mxCell id="70" value="Extends" style="endArrow=block;endSize=16;endFill=0;html=1;entryX=0.5;entryY=1;entryDx=0;entryDy=0;exitX=0.5;exitY=0;exitDx=0;exitDy=0;" edge="1" parent="1" source="43" target="19">
                    <mxGeometry width="160" relative="1" as="geometry">
                        <mxPoint x="-405" y="685" as="sourcePoint"/>
                        <mxPoint x="-245" y="685" as="targetPoint"/>
                    </mxGeometry>
                </mxCell>
                <mxCell id="71" value="&lt;p style=&quot;margin:0px;margin-top:4px;text-align:center;&quot;&gt;LoanRequest&lt;/p&gt;" style="verticalAlign=top;align=left;overflow=fill;fontSize=12;fontFamily=Helvetica;html=1;" vertex="1" parent="1">
                    <mxGeometry x="-300" y="20" width="440" height="230" as="geometry"/>
                </mxCell>
                <mxCell id="72" value="- applicant: User" style="text;strokeColor=none;fillColor=none;align=left;verticalAlign=top;spacingLeft=4;spacingRight=4;overflow=hidden;rotatable=0;points=[[0,0.5],[1,0.5]];portConstraint=eastwest;" vertex="1" parent="1">
                    <mxGeometry x="-300" y="54" width="160" height="24" as="geometry"/>
                </mxCell>
                <mxCell id="73" value="- requested: Loanable" style="text;strokeColor=none;fillColor=none;align=left;verticalAlign=top;spacingLeft=4;spacingRight=4;overflow=hidden;rotatable=0;points=[[0,0.5],[1,0.5]];portConstraint=eastwest;" vertex="1" parent="1">
                    <mxGeometry x="-300" y="78" width="160" height="24" as="geometry"/>
                </mxCell>
                <mxCell id="74" value="- accepted: boolean" style="text;strokeColor=none;fillColor=none;align=left;verticalAlign=top;spacingLeft=4;spacingRight=4;overflow=hidden;rotatable=0;points=[[0,0.5],[1,0.5]];portConstraint=eastwest;" vertex="1" parent="1">
                    <mxGeometry x="-300" y="104" width="160" height="24" as="geometry"/>
                </mxCell>
                <mxCell id="75" value="- dateOfRequest: LocalDate" style="text;strokeColor=none;fillColor=none;align=left;verticalAlign=top;spacingLeft=4;spacingRight=4;overflow=hidden;rotatable=0;points=[[0,0.5],[1,0.5]];portConstraint=eastwest;" vertex="1" parent="1">
                    <mxGeometry x="-300" y="128" width="160" height="24" as="geometry"/>
                </mxCell>
                <mxCell id="80" value="" style="line;strokeWidth=1;fillColor=none;align=left;verticalAlign=middle;spacingTop=-1;spacingLeft=3;spacingRight=3;rotatable=0;labelPosition=right;points=[];portConstraint=eastwest;strokeColor=inherit;" vertex="1" parent="1">
                    <mxGeometry x="-300" y="160" width="440" height="8" as="geometry"/>
                </mxCell>
                <mxCell id="81" value="+ LoanRequest(applicant: User,requested: Loanable,dateOfRequest: LocalDate)" style="text;strokeColor=none;fillColor=none;align=left;verticalAlign=top;spacingLeft=4;spacingRight=4;overflow=hidden;rotatable=0;points=[[0,0.5],[1,0.5]];portConstraint=eastwest;" vertex="1" parent="1">
                    <mxGeometry x="-300" y="168" width="510" height="24" as="geometry"/>
                </mxCell>
                <mxCell id="85" value="+ accept(applicant: Admin)" style="text;strokeColor=none;fillColor=none;align=left;verticalAlign=top;spacingLeft=4;spacingRight=4;overflow=hidden;rotatable=0;points=[[0,0.5],[1,0.5]];portConstraint=eastwest;" vertex="1" parent="1">
                    <mxGeometry x="-300" y="192" width="500" height="24" as="geometry"/>
                </mxCell>
                <mxCell id="86" value="+ getters" style="text;strokeColor=none;fillColor=none;align=left;verticalAlign=top;spacingLeft=4;spacingRight=4;overflow=hidden;rotatable=0;points=[[0,0.5],[1,0.5]];portConstraint=eastwest;" vertex="1" parent="1">
                    <mxGeometry x="-300" y="216" width="500" height="24" as="geometry"/>
                </mxCell>
                <mxCell id="91" value="" style="line;strokeWidth=1;fillColor=none;align=left;verticalAlign=middle;spacingTop=-1;spacingLeft=3;spacingRight=3;rotatable=0;labelPosition=right;points=[];portConstraint=eastwest;strokeColor=inherit;" vertex="1" parent="1">
                    <mxGeometry x="400" y="607" width="510" height="8" as="geometry"/>
                </mxCell>
                <mxCell id="93" value="" style="line;strokeWidth=1;fillColor=none;align=left;verticalAlign=middle;spacingTop=-1;spacingLeft=3;spacingRight=3;rotatable=0;labelPosition=right;points=[];portConstraint=eastwest;strokeColor=inherit;" vertex="1" parent="1">
                    <mxGeometry x="405" y="35" width="500" height="8" as="geometry"/>
                </mxCell>
                <mxCell id="94" value="" style="line;strokeWidth=1;fillColor=none;align=left;verticalAlign=middle;spacingTop=-1;spacingLeft=3;spacingRight=3;rotatable=0;labelPosition=right;points=[];portConstraint=eastwest;strokeColor=inherit;" vertex="1" parent="1">
                    <mxGeometry x="-300" y="40" width="440" height="8" as="geometry"/>
                </mxCell>
                <mxCell id="95" value="Use" style="endArrow=open;endSize=12;dashed=1;html=1;exitX=0.407;exitY=0.854;exitDx=0;exitDy=0;entryX=-0.029;entryY=0.153;entryDx=0;entryDy=0;entryPerimeter=0;exitPerimeter=0;" edge="1" parent="1" source="93" target="20">
                    <mxGeometry width="160" relative="1" as="geometry">
                        <mxPoint x="165" y="245" as="sourcePoint"/>
                        <mxPoint x="325" y="245" as="targetPoint"/>
                    </mxGeometry>
                </mxCell>
                <mxCell id="96" value="Use" style="endArrow=open;endSize=12;dashed=1;html=1;entryX=-0.014;entryY=0.105;entryDx=0;entryDy=0;entryPerimeter=0;exitX=0.522;exitY=0.5;exitDx=0;exitDy=0;exitPerimeter=0;" edge="1" parent="1" source="91" target="49">
                    <mxGeometry width="160" relative="1" as="geometry">
                        <mxPoint x="515" y="535" as="sourcePoint"/>
                        <mxPoint x="700.94" y="103.03200000000004" as="targetPoint"/>
                    </mxGeometry>
                </mxCell>
                <mxCell id="97" value="requests" style="endArrow=open;endSize=12;dashed=1;html=1;exitX=1.007;exitY=0.057;exitDx=0;exitDy=0;entryX=-0.004;entryY=0.028;entryDx=0;entryDy=0;entryPerimeter=0;exitPerimeter=0;" edge="1" parent="1" source="71" target="19">
                    <mxGeometry x="-0.0109" width="160" relative="1" as="geometry">
                        <mxPoint x="530" y="118" as="sourcePoint"/>
                        <mxPoint x="645.94" y="118.03200000000004" as="targetPoint"/>
                        <mxPoint as="offset"/>
                    </mxGeometry>
                </mxCell>
                <mxCell id="99" value="«interface»&lt;br&gt;&lt;b&gt;LoanRequestFilter&lt;/b&gt;" style="html=1;" vertex="1" parent="1">
                    <mxGeometry x="-650" y="202" width="120" height="50" as="geometry"/>
                </mxCell>
                <mxCell id="100" value="«interface»&lt;br&gt;&lt;b&gt;BookFilter&lt;/b&gt;" style="html=1;" vertex="1" parent="1">
                    <mxGeometry x="1280" y="123" width="110" height="50" as="geometry"/>
                </mxCell>
                <mxCell id="145" value="&lt;p style=&quot;margin:0px;margin-top:4px;text-align:center;&quot;&gt;&lt;b&gt;LoanRequestsManager&lt;/b&gt;&lt;/p&gt;" style="verticalAlign=top;align=left;overflow=fill;fontSize=12;fontFamily=Helvetica;html=1;" vertex="1" parent="1">
                    <mxGeometry x="-350" y="590" width="620" height="450" as="geometry"/>
                </mxCell>
                <mxCell id="146" value="- instance: LoanRequestsManager" style="text;strokeColor=none;fillColor=none;align=left;verticalAlign=top;spacingLeft=4;spacingRight=4;overflow=hidden;rotatable=0;points=[[0,0.5],[1,0.5]];portConstraint=eastwest;fontStyle=4" vertex="1" parent="1">
                    <mxGeometry x="-340" y="632" width="200" height="24" as="geometry"/>
                </mxCell>
                <mxCell id="150" value="&lt;&lt;enumeration&gt;&gt;&#10;Criteria" style="swimlane;fontStyle=4;childLayout=stackLayout;horizontal=1;startSize=40;fillColor=none;horizontalStack=0;resizeParent=1;resizeParentMax=0;resizeLast=0;collapsible=1;marginBottom=0;" vertex="1" parent="1">
                    <mxGeometry x="100" y="665" width="140" height="130" as="geometry"/>
                </mxCell>
                <mxCell id="151" value="OBJ_ID&#10;OBJ_NAME APPLICANT DATE_OF_REQ LOAN_STATE" style="text;strokeColor=none;fillColor=none;align=left;verticalAlign=top;spacingLeft=4;spacingRight=4;overflow=hidden;rotatable=0;points=[[0,0.5],[1,0.5]];portConstraint=eastwest;whiteSpace=wrap;" vertex="1" parent="150">
                    <mxGeometry y="40" width="140" height="90" as="geometry"/>
                </mxCell>
                <mxCell id="153" value="" style="line;strokeWidth=1;fillColor=none;align=left;verticalAlign=middle;spacingTop=-1;spacingLeft=3;spacingRight=3;rotatable=0;labelPosition=right;points=[];portConstraint=eastwest;strokeColor=inherit;" vertex="1" parent="1">
                    <mxGeometry x="-350" y="802" width="620" height="8" as="geometry"/>
                </mxCell>
                <mxCell id="154" value="- LoanRequestsManager()" style="text;strokeColor=none;fillColor=none;align=left;verticalAlign=top;spacingLeft=4;spacingRight=4;overflow=hidden;rotatable=0;points=[[0,0.5],[1,0.5]];portConstraint=eastwest;" vertex="1" parent="1">
                    <mxGeometry x="-350" y="816" width="510" height="24" as="geometry"/>
                </mxCell>
                <mxCell id="155" value="+ getInstance(): LoanRequestsManager" style="text;strokeColor=none;fillColor=none;align=left;verticalAlign=top;spacingLeft=4;spacingRight=4;overflow=hidden;rotatable=0;points=[[0,0.5],[1,0.5]];portConstraint=eastwest;fontStyle=4" vertex="1" parent="1">
                    <mxGeometry x="-350" y="840" width="510" height="28" as="geometry"/>
                </mxCell>
                <mxCell id="156" value="+ makeBookRequest(applicant: User, book: Book): LoanRequest" style="text;strokeColor=none;fillColor=none;align=left;verticalAlign=top;spacingLeft=4;spacingRight=4;overflow=hidden;rotatable=0;points=[[0,0.5],[1,0.5]];portConstraint=eastwest;" vertex="1" parent="1">
                    <mxGeometry x="-350" y="888" width="500" height="24" as="geometry"/>
                </mxCell>
                <mxCell id="157" value="+ acceptRequest(applicant: Admin, request: LoanRequest)" style="text;strokeColor=none;fillColor=none;align=left;verticalAlign=top;spacingLeft=4;spacingRight=4;overflow=hidden;rotatable=0;points=[[0,0.5],[1,0.5]];portConstraint=eastwest;" vertex="1" parent="1">
                    <mxGeometry x="-350" y="910" width="500" height="24" as="geometry"/>
                </mxCell>
                <mxCell id="163" value="" style="line;strokeWidth=1;fillColor=none;align=left;verticalAlign=middle;spacingTop=-1;spacingLeft=3;spacingRight=3;rotatable=0;labelPosition=right;points=[];portConstraint=eastwest;strokeColor=inherit;" vertex="1" parent="1">
                    <mxGeometry x="-350" y="612" width="620" height="8" as="geometry"/>
                </mxCell>
                <mxCell id="165" value="Singleton" style="endArrow=open;endSize=12;dashed=1;html=1;exitX=-0.001;exitY=0.03;exitDx=0;exitDy=0;exitPerimeter=0;" edge="1" parent="1" source="145">
                    <mxGeometry x="0.1738" width="160" relative="1" as="geometry">
                        <mxPoint x="-170" y="730" as="sourcePoint"/>
                        <mxPoint x="-320" y="590" as="targetPoint"/>
                        <Array as="points">
                            <mxPoint x="-450" y="605"/>
                            <mxPoint x="-450" y="520"/>
                            <mxPoint x="-320" y="520"/>
                            <mxPoint x="-320" y="560"/>
                        </Array>
                        <mxPoint as="offset"/>
                    </mxGeometry>
                </mxCell>
                <mxCell id="166" value="Use" style="endArrow=open;endSize=12;dashed=1;html=1;exitX=-0.001;exitY=0.284;exitDx=0;exitDy=0;entryX=0.5;entryY=1;entryDx=0;entryDy=0;exitPerimeter=0;" edge="1" parent="1" source="145" target="99">
                    <mxGeometry width="160" relative="1" as="geometry">
                        <mxPoint x="-670" y="431.5500000000001" as="sourcePoint"/>
                        <mxPoint x="-554.06" y="431.58200000000005" as="targetPoint"/>
                        <Array as="points">
                            <mxPoint x="-590" y="721"/>
                        </Array>
                    </mxGeometry>
                </mxCell>
                <mxCell id="169" value="- ORDER_CRITERIAS: Map&lt;Criteria, Comparator&lt;LoanRequest&gt;&gt;" style="text;strokeColor=none;fillColor=none;align=left;verticalAlign=top;spacingLeft=4;spacingRight=4;overflow=hidden;rotatable=0;points=[[0,0.5],[1,0.5]];portConstraint=eastwest;fontStyle=4" vertex="1" parent="1">
                    <mxGeometry x="-340" y="658" width="370" height="24" as="geometry"/>
                </mxCell>
                <mxCell id="170" value="- FILTER_CRITERIAS: Map&lt;Criteria, LoanRequestFilter&lt;?&gt;&gt;" style="text;strokeColor=none;fillColor=none;align=left;verticalAlign=top;spacingLeft=4;spacingRight=4;overflow=hidden;rotatable=0;points=[[0,0.5],[1,0.5]];portConstraint=eastwest;fontStyle=4" vertex="1" parent="1">
                    <mxGeometry x="-340" y="682" width="370" height="24" as="geometry"/>
                </mxCell>
                <mxCell id="171" value="- requests: List&lt;LoanRequest&gt;" style="text;strokeColor=none;fillColor=none;align=left;verticalAlign=top;spacingLeft=4;spacingRight=4;overflow=hidden;rotatable=0;points=[[0,0.5],[1,0.5]];portConstraint=eastwest;fontStyle=0" vertex="1" parent="1">
                    <mxGeometry x="-340" y="706" width="200" height="24" as="geometry"/>
                </mxCell>
                <mxCell id="173" value="" style="endArrow=diamondThin;endFill=0;endSize=24;html=1;entryX=0.441;entryY=-0.007;entryDx=0;entryDy=0;entryPerimeter=0;" edge="1" parent="1" target="145">
                    <mxGeometry width="160" relative="1" as="geometry">
                        <mxPoint x="-77" y="250" as="sourcePoint"/>
                        <mxPoint x="-90" y="630" as="targetPoint"/>
                    </mxGeometry>
                </mxCell>
                <mxCell id="174" value="Use" style="endArrow=open;endSize=12;dashed=1;html=1;entryX=-0.014;entryY=0.105;entryDx=0;entryDy=0;entryPerimeter=0;exitX=0.639;exitY=0.917;exitDx=0;exitDy=0;exitPerimeter=0;" edge="1" parent="1" source="163">
                    <mxGeometry x="-0.0173" width="160" relative="1" as="geometry">
                        <mxPoint x="34.440000000000055" y="679" as="sourcePoint"/>
                        <mxPoint x="98.03999999999996" y="678.6499999999999" as="targetPoint"/>
                        <mxPoint as="offset"/>
                    </mxGeometry>
                </mxCell>
                <mxCell id="175" value="Requests" style="endArrow=open;endSize=12;dashed=1;html=1;entryX=0.057;entryY=0.004;entryDx=0;entryDy=0;entryPerimeter=0;exitX=0.967;exitY=-0.001;exitDx=0;exitDy=0;exitPerimeter=0;" edge="1" parent="1" source="145" target="43">
                    <mxGeometry x="0.056" width="160" relative="1" as="geometry">
                        <mxPoint x="44.440000000000055" y="689" as="sourcePoint"/>
                        <mxPoint x="108.03999999999996" y="688.6499999999999" as="targetPoint"/>
                        <mxPoint as="offset"/>
                        <Array as="points">
                            <mxPoint x="250" y="550"/>
                            <mxPoint x="430" y="550"/>
                        </Array>
                    </mxGeometry>
                </mxCell>
                <mxCell id="176" value="+ denyRequest(applicant: Admin, request: LoanRequest)" style="text;strokeColor=none;fillColor=none;align=left;verticalAlign=top;spacingLeft=4;spacingRight=4;overflow=hidden;rotatable=0;points=[[0,0.5],[1,0.5]];portConstraint=eastwest;" vertex="1" parent="1">
                    <mxGeometry x="-350" y="934" width="500" height="24" as="geometry"/>
                </mxCell>
                <mxCell id="179" value="+ cancelRequest(applicant: User, request: LoanRequest)" style="text;strokeColor=none;fillColor=none;align=left;verticalAlign=top;spacingLeft=4;spacingRight=4;overflow=hidden;rotatable=0;points=[[0,0.5],[1,0.5]];portConstraint=eastwest;" vertex="1" parent="1">
                    <mxGeometry x="-350" y="958" width="500" height="24" as="geometry"/>
                </mxCell>
                <mxCell id="180" value="+ getSortedRequestsBy(criteria: Criteria): List&lt;LoanRequest&gt; " style="text;strokeColor=none;fillColor=none;align=left;verticalAlign=top;spacingLeft=4;spacingRight=4;overflow=hidden;rotatable=0;points=[[0,0.5],[1,0.5]];portConstraint=eastwest;" vertex="1" parent="1">
                    <mxGeometry x="-350" y="982" width="500" height="24" as="geometry"/>
                </mxCell>
                <mxCell id="181" value="+ &lt;T&gt; filterBy(criteria: Criteria, argument: T): List&lt;LoanRequest&gt; " style="text;strokeColor=none;fillColor=none;align=left;verticalAlign=top;spacingLeft=4;spacingRight=4;overflow=hidden;rotatable=0;points=[[0,0.5],[1,0.5]];portConstraint=eastwest;" vertex="1" parent="1">
                    <mxGeometry x="-350" y="1006" width="500" height="24" as="geometry"/>
                </mxCell>
                <mxCell id="182" value="&lt;p style=&quot;margin:0px;margin-top:4px;text-align:center;&quot;&gt;&lt;b&gt;ArchiveManager&lt;/b&gt;&lt;/p&gt;" style="verticalAlign=top;align=left;overflow=fill;fontSize=12;fontFamily=Helvetica;html=1;" vertex="1" parent="1">
                    <mxGeometry x="1050" y="590" width="620" height="430" as="geometry"/>
                </mxCell>
                <mxCell id="183" value="- instance: LoanRequestsManager" style="text;strokeColor=none;fillColor=none;align=left;verticalAlign=top;spacingLeft=4;spacingRight=4;overflow=hidden;rotatable=0;points=[[0,0.5],[1,0.5]];portConstraint=eastwest;fontStyle=4" vertex="1" parent="1">
                    <mxGeometry x="1060" y="632" width="200" height="24" as="geometry"/>
                </mxCell>
                <mxCell id="184" value="&lt;&lt;enumeration&gt;&gt;&#10;Criteria" style="swimlane;fontStyle=4;childLayout=stackLayout;horizontal=1;startSize=40;fillColor=none;horizontalStack=0;resizeParent=1;resizeParentMax=0;resizeLast=0;collapsible=1;marginBottom=0;" vertex="1" parent="1">
                    <mxGeometry x="1520" y="622" width="140" height="180" as="geometry"/>
                </mxCell>
                <mxCell id="168" value="LOAN_STATE &#10;ID &#10;RELEASE_YEAR NUM_PAGES&#10;GENRE&#10;AUTHOR&#10;TITLE NUM_PAGES_MORE NUM_PAGES_LESS" style="text;strokeColor=none;fillColor=none;align=left;verticalAlign=top;spacingLeft=4;spacingRight=4;overflow=hidden;rotatable=0;points=[[0,0.5],[1,0.5]];portConstraint=eastwest;whiteSpace=wrap;" vertex="1" parent="184">
                    <mxGeometry y="40" width="140" height="140" as="geometry"/>
                </mxCell>
                <mxCell id="186" value="" style="line;strokeWidth=1;fillColor=none;align=left;verticalAlign=middle;spacingTop=-1;spacingLeft=3;spacingRight=3;rotatable=0;labelPosition=right;points=[];portConstraint=eastwest;strokeColor=inherit;" vertex="1" parent="1">
                    <mxGeometry x="1050" y="802" width="620" height="8" as="geometry"/>
                </mxCell>
                <mxCell id="187" value="- ArchiveManager()" style="text;strokeColor=none;fillColor=none;align=left;verticalAlign=top;spacingLeft=4;spacingRight=4;overflow=hidden;rotatable=0;points=[[0,0.5],[1,0.5]];portConstraint=eastwest;" vertex="1" parent="1">
                    <mxGeometry x="1050" y="820" width="510" height="24" as="geometry"/>
                </mxCell>
                <mxCell id="188" value="+ getInstance(): ArchiveManager" style="text;strokeColor=none;fillColor=none;align=left;verticalAlign=top;spacingLeft=4;spacingRight=4;overflow=hidden;rotatable=0;points=[[0,0.5],[1,0.5]];portConstraint=eastwest;fontStyle=4" vertex="1" parent="1">
                    <mxGeometry x="1050" y="844" width="510" height="28" as="geometry"/>
                </mxCell>
                <mxCell id="189" value="+ addBook(applicant: Admin, book: Book)" style="text;strokeColor=none;fillColor=none;align=left;verticalAlign=top;spacingLeft=4;spacingRight=4;overflow=hidden;rotatable=0;points=[[0,0.5],[1,0.5]];portConstraint=eastwest;" vertex="1" parent="1">
                    <mxGeometry x="1050" y="892" width="500" height="24" as="geometry"/>
                </mxCell>
                <mxCell id="191" value="" style="line;strokeWidth=1;fillColor=none;align=left;verticalAlign=middle;spacingTop=-1;spacingLeft=3;spacingRight=3;rotatable=0;labelPosition=right;points=[];portConstraint=eastwest;strokeColor=inherit;" vertex="1" parent="1">
                    <mxGeometry x="1050" y="612" width="620" height="8" as="geometry"/>
                </mxCell>
                <mxCell id="192" value="- ORDER_CRITERIAS: Map&lt;Criteria, Comparator&lt;Book&gt;&gt;" style="text;strokeColor=none;fillColor=none;align=left;verticalAlign=top;spacingLeft=4;spacingRight=4;overflow=hidden;rotatable=0;points=[[0,0.5],[1,0.5]];portConstraint=eastwest;fontStyle=4" vertex="1" parent="1">
                    <mxGeometry x="1060" y="658" width="330" height="24" as="geometry"/>
                </mxCell>
                <mxCell id="193" value="- FILTER_CRITERIAS: Map&lt;Criteria, BookFilter&lt;?&gt;&gt;" style="text;strokeColor=none;fillColor=none;align=left;verticalAlign=top;spacingLeft=4;spacingRight=4;overflow=hidden;rotatable=0;points=[[0,0.5],[1,0.5]];portConstraint=eastwest;fontStyle=4" vertex="1" parent="1">
                    <mxGeometry x="1060" y="682" width="330" height="24" as="geometry"/>
                </mxCell>
                <mxCell id="194" value="- archive: HashMap&lt;String, Book&gt;" style="text;strokeColor=none;fillColor=none;align=left;verticalAlign=top;spacingLeft=4;spacingRight=4;overflow=hidden;rotatable=0;points=[[0,0.5],[1,0.5]];portConstraint=eastwest;fontStyle=0" vertex="1" parent="1">
                    <mxGeometry x="1060" y="706" width="200" height="24" as="geometry"/>
                </mxCell>
                <mxCell id="195" value="Use" style="endArrow=open;endSize=12;dashed=1;html=1;entryX=-0.021;entryY=0.088;entryDx=0;entryDy=0;entryPerimeter=0;exitX=0.642;exitY=0.708;exitDx=0;exitDy=0;exitPerimeter=0;" edge="1" parent="1" source="191" target="168">
                    <mxGeometry x="-0.0173" width="160" relative="1" as="geometry">
                        <mxPoint x="1434.44" y="679" as="sourcePoint"/>
                        <mxPoint x="1498.04" y="678.6499999999996" as="targetPoint"/>
                        <mxPoint as="offset"/>
                    </mxGeometry>
                </mxCell>
                <mxCell id="196" value="+ searchBook(searchQuery: String): List&lt;Book&gt; " style="text;strokeColor=none;fillColor=none;align=left;verticalAlign=top;spacingLeft=4;spacingRight=4;overflow=hidden;rotatable=0;points=[[0,0.5],[1,0.5]];portConstraint=eastwest;" vertex="1" parent="1">
                    <mxGeometry x="1050" y="940" width="500" height="24" as="geometry"/>
                </mxCell>
                <mxCell id="198" value="+ getSortedBooksBy(criteria: Criteria): List&lt;Book&gt; " style="text;strokeColor=none;fillColor=none;align=left;verticalAlign=top;spacingLeft=4;spacingRight=4;overflow=hidden;rotatable=0;points=[[0,0.5],[1,0.5]];portConstraint=eastwest;" vertex="1" parent="1">
                    <mxGeometry x="1050" y="872" width="500" height="24" as="geometry"/>
                </mxCell>
                <mxCell id="199" value="+ &lt;T&gt; filterBy(criteria: Criteria, argument: T): List&lt;Book&gt; " style="text;strokeColor=none;fillColor=none;align=left;verticalAlign=top;spacingLeft=4;spacingRight=4;overflow=hidden;rotatable=0;points=[[0,0.5],[1,0.5]];portConstraint=eastwest;" vertex="1" parent="1">
                    <mxGeometry x="1050" y="988" width="500" height="24" as="geometry"/>
                </mxCell>
                <mxCell id="202" value="Singleton" style="endArrow=open;endSize=12;dashed=1;html=1;exitX=-0.001;exitY=0.03;exitDx=0;exitDy=0;exitPerimeter=0;" edge="1" parent="1">
                    <mxGeometry x="0.1738" width="160" relative="1" as="geometry">
                        <mxPoint x="1049.38" y="603.8" as="sourcePoint"/>
                        <mxPoint x="1080" y="590" as="targetPoint"/>
                        <Array as="points">
                            <mxPoint x="950" y="605"/>
                            <mxPoint x="950" y="520"/>
                            <mxPoint x="1080" y="520"/>
                            <mxPoint x="1080" y="560"/>
                        </Array>
                        <mxPoint as="offset"/>
                    </mxGeometry>
                </mxCell>
                <mxCell id="203" value="Use" style="endArrow=open;endSize=12;dashed=1;html=1;exitX=0.45;exitY=-0.008;exitDx=0;exitDy=0;entryX=0.5;entryY=1;entryDx=0;entryDy=0;exitPerimeter=0;" edge="1" parent="1" source="182">
                    <mxGeometry width="160" relative="1" as="geometry">
                        <mxPoint x="1569.38" y="642.3199999999999" as="sourcePoint"/>
                        <mxPoint x="1330" y="173.68" as="targetPoint"/>
                        <Array as="points">
                            <mxPoint x="1330" y="410"/>
                        </Array>
                    </mxGeometry>
                </mxCell>
                <mxCell id="204" value="" style="endArrow=diamondThin;endFill=0;endSize=24;html=1;entryX=-0.003;entryY=0.303;entryDx=0;entryDy=0;entryPerimeter=0;exitX=1.002;exitY=0.263;exitDx=0;exitDy=0;exitPerimeter=0;" edge="1" parent="1" source="43" target="182">
                    <mxGeometry width="160" relative="1" as="geometry">
                        <mxPoint x="-67" y="260" as="sourcePoint"/>
                        <mxPoint x="-66.57999999999993" y="596.78" as="targetPoint"/>
                    </mxGeometry>
                </mxCell>
                <mxCell id="206" value="Checks availability from" style="endArrow=open;endSize=12;dashed=1;html=1;exitX=0.915;exitY=1.006;exitDx=0;exitDy=0;entryX=0.241;entryY=1;entryDx=0;entryDy=0;exitPerimeter=0;entryPerimeter=0;" edge="1" parent="1" source="145" target="182">
                    <mxGeometry width="160" relative="1" as="geometry">
                        <mxPoint x="1339" y="596.3199999999999" as="sourcePoint"/>
                        <mxPoint x="1340" y="183.68000000000006" as="targetPoint"/>
                        <Array as="points">
                            <mxPoint x="217" y="1160"/>
                            <mxPoint x="1200" y="1160"/>
                        </Array>
                    </mxGeometry>
                </mxCell>
                <mxCell id="208" value="+ initializeRequests(archive: List&lt;LoanRequests&gt;)" style="text;strokeColor=none;fillColor=none;align=left;verticalAlign=top;spacingLeft=4;spacingRight=4;overflow=hidden;rotatable=0;points=[[0,0.5],[1,0.5]];portConstraint=eastwest;" vertex="1" parent="1">
                    <mxGeometry x="-350" y="868" width="500" height="24" as="geometry"/>
                </mxCell>
                <mxCell id="209" value="+ removeBook(applicant: Admin, book: Book)" style="text;strokeColor=none;fillColor=none;align=left;verticalAlign=top;spacingLeft=4;spacingRight=4;overflow=hidden;rotatable=0;points=[[0,0.5],[1,0.5]];portConstraint=eastwest;" vertex="1" parent="1">
                    <mxGeometry x="1050" y="916" width="500" height="24" as="geometry"/>
                </mxCell>
                <mxCell id="210" value="+ isBookPresent(book: Book): boolean " style="text;strokeColor=none;fillColor=none;align=left;verticalAlign=top;spacingLeft=4;spacingRight=4;overflow=hidden;rotatable=0;points=[[0,0.5],[1,0.5]];portConstraint=eastwest;" vertex="1" parent="1">
                    <mxGeometry x="1050" y="964" width="500" height="24" as="geometry"/>
                </mxCell>
                <mxCell id="212" value="Manages" style="text;align=center;fontStyle=1;verticalAlign=middle;spacingLeft=3;spacingRight=3;strokeColor=none;rotatable=0;points=[[0,0.5],[1,0.5]];portConstraint=eastwest;" vertex="1" parent="1">
                    <mxGeometry x="-85" y="400" width="80" height="26" as="geometry"/>
                </mxCell>
                <mxCell id="214" value="Manages" style="text;align=center;fontStyle=1;verticalAlign=middle;spacingLeft=3;spacingRight=3;strokeColor=none;rotatable=0;points=[[0,0.5],[1,0.5]];portConstraint=eastwest;" vertex="1" parent="1">
                    <mxGeometry x="930" y="717" width="80" height="26" as="geometry"/>
                </mxCell>
            </root>
        </mxGraphModel>
    </diagram>
</mxfile>